<svg width="739" height="91" viewBox="0 0 739 91" fill="none" xmlns="http://www.w3.org/2000/svg">
<path d="M0.625 34.9375C0.208333 32.6875 0.270833 30.3333 0.8125 27.875C1.39583 25.375 2.3125 22.8958 3.5625 20.4375C4.8125 17.9792 6.35417 15.625 8.1875 13.375C10.0208 11.0833 11.9792 9.02083 14.0625 7.1875C16.1875 5.35417 18.3958 3.8125 20.6875 2.5625C23.0208 1.3125 25.2917 0.458333 27.5 0C28.1667 0 28.75 0.208333 29.25 0.625C29.7917 1.04167 30.25 1.5625 30.625 2.1875C31 2.8125 31.2708 3.47917 31.4375 4.1875C31.6458 4.89583 31.75 5.54167 31.75 6.125V12.1875C31.75 12.6042 31.5833 12.875 31.25 13C30.9167 13.0833 30.625 13.125 30.375 13.125C30.0833 13.125 29.7292 13.0833 29.3125 13C28.8958 12.9167 28.6875 12.6458 28.6875 12.1875C28.6875 12.0208 28.6667 11.75 28.625 11.375C28.5833 11 28.5417 10.5833 28.5 10.125C28.4583 9.66667 28.4167 9.22917 28.375 8.8125C28.375 8.39583 28.375 8.125 28.375 8C28.375 7.91667 28.3542 7.64583 28.3125 7.1875C28.3125 6.6875 28.2708 6.1875 28.1875 5.6875C28.1042 5.1875 27.9792 4.72917 27.8125 4.3125C27.6458 3.89583 27.4375 3.6875 27.1875 3.6875H25C25 3.6875 24.8125 3.79167 24.4375 4C24.0625 4.16667 23.625 4.375 23.125 4.625C22.625 4.875 22.125 5.14583 21.625 5.4375C21.125 5.6875 20.75 5.91667 20.5 6.125C20.375 6.20833 20.1667 6.35417 19.875 6.5625C19.625 6.77083 19.3542 6.97917 19.0625 7.1875C18.7708 7.39583 18.5 7.60417 18.25 7.8125C18 8.02083 17.8125 8.16667 17.6875 8.25C15.4375 10.4167 13.4792 12.4375 11.8125 14.3125C10.1458 16.1458 8.75 18.0625 7.625 20.0625C6.5 22.0625 5.64583 24.2292 5.0625 26.5625C4.52083 28.8542 4.25 31.5833 4.25 34.75C4.25 36 4.3125 37.3958 4.4375 38.9375C4.60417 40.4375 4.83333 41.9792 5.125 43.5625C5.45833 45.1458 5.91667 46.7083 6.5 48.25C7.08333 49.75 7.8125 51.0833 8.6875 52.25C9.5625 53.4167 10.625 54.3542 11.875 55.0625C13.125 55.7708 14.6042 56.125 16.3125 56.125H17.6875C19.5625 55.5 21.2083 54.9375 22.625 54.4375C24.0833 53.8958 25.375 53.3542 26.5 52.8125C27.6667 52.2708 28.7083 51.6875 29.625 51.0625C30.5833 50.3958 31.5 49.6042 32.375 48.6875C33.2917 47.7708 34.2292 46.6667 35.1875 45.375C36.1458 44.0833 37.2292 42.5625 38.4375 40.8125C38.4792 40.8125 38.5417 40.8125 38.625 40.8125C38.7083 40.7708 38.7917 40.75 38.875 40.75C39.625 40.75 40 41.125 40 41.875C40 42.8333 39.75 43.9167 39.25 45.125C38.7917 46.2917 37.9167 47.5833 36.625 49C35.375 50.4167 33.6042 51.9167 31.3125 53.5C29.0625 55.0417 26.1667 56.6042 22.625 58.1875C21.9583 58.4792 21.375 58.7292 20.875 58.9375C20.375 59.1042 19.8958 59.2292 19.4375 59.3125C18.9792 59.3958 18.5 59.4375 18 59.4375C17.5417 59.4792 17.0208 59.5 16.4375 59.5C14.2708 59.5 12.375 59.125 10.75 58.375C9.16667 57.625 7.79167 56.625 6.625 55.375C5.45833 54.0833 4.47917 52.625 3.6875 51C2.9375 49.3333 2.33333 47.5833 1.875 45.75C1.41667 43.875 1.08333 42.0208 0.875 40.1875C0.708333 38.3125 0.625 36.5625 0.625 34.9375ZM38.75 57.5625C38.75 57.4375 38.75 57.125 38.75 56.625C38.75 56.125 38.75 55.7917 38.75 55.625C38.0417 53.125 37.9375 50.6667 38.4375 48.25C38.9792 45.8333 39.9167 43.6667 41.25 41.75C42.625 39.7917 44.3542 38.1667 46.4375 36.875C48.5625 35.5417 50.875 34.7292 53.375 34.4375H54.5C55.4167 34.4375 56.1667 34.6458 56.75 35.0625C57.375 35.4375 57.8542 35.9375 58.1875 36.5625C58.5625 37.1875 58.8125 37.8958 58.9375 38.6875C59.1042 39.4792 59.1875 40.2708 59.1875 41.0625C59.1875 42.1458 59.0625 43.2083 58.8125 44.25C58.6042 45.25 58.3542 46.2708 58.0625 47.3125C57.8125 48.3542 57.5625 49.3958 57.3125 50.4375C57.1042 51.4375 57 52.5 57 53.625V54C57.0417 54.0833 57.0833 54.3333 57.125 54.75C57.2083 55.125 57.2708 55.3542 57.3125 55.4375C57.3958 55.4375 57.6042 55.4583 57.9375 55.5C58.2708 55.5 58.4792 55.5 58.5625 55.5C58.9792 55.5 59.375 55.5 59.75 55.5C60.1667 55.4583 60.5833 55.3542 61 55.1875L72.875 49.6875C72.9167 49.6875 72.9792 49.6875 73.0625 49.6875C73.1875 49.6458 73.2708 49.625 73.3125 49.625C73.7292 49.625 74.0625 49.75 74.3125 50C74.6042 50.25 74.75 50.5833 74.75 51C74.75 51.2083 74.7292 51.4167 74.6875 51.625C74.6875 51.7917 74.5833 51.9583 74.375 52.125C74.0833 52.3333 73.5417 52.625 72.75 53C72 53.375 71.1875 53.7917 70.3125 54.25C69.4375 54.7083 68.6042 55.1458 67.8125 55.5625C67.0625 55.9792 66.5208 56.25 66.1875 56.375C65.6042 56.7083 64.9583 57.0208 64.25 57.3125C63.5417 57.5625 62.8125 57.8125 62.0625 58.0625C61.3125 58.3125 60.5625 58.5208 59.8125 58.6875C59.1042 58.8125 58.4583 58.875 57.875 58.875C56.9583 58.875 56.2083 58.7292 55.625 58.4375C55.0417 58.1042 54.6042 57.6875 54.3125 57.1875C54.0208 56.6458 53.8125 56.0208 53.6875 55.3125C53.6042 54.5625 53.6042 53.7917 53.6875 53C52.8542 53.6667 51.9583 54.375 51 55.125C50.0417 55.875 49.0417 56.5625 48 57.1875C46.9583 57.8125 45.8958 58.3542 44.8125 58.8125C43.7292 59.2708 42.625 59.5 41.5 59.5C40.875 59.5 40.3125 59.3542 39.8125 59.0625C39.3125 58.7292 38.9583 58.2292 38.75 57.5625ZM42.125 56.25C43.0833 56.25 44.1458 55.9792 45.3125 55.4375C46.4792 54.8542 47.625 54.1458 48.75 53.3125C49.875 52.4792 50.8958 51.6042 51.8125 50.6875C52.7292 49.7292 53.4375 48.875 53.9375 48.125C53.9792 46.875 54.1458 45.6875 54.4375 44.5625C54.7708 43.3958 54.9375 42.2083 54.9375 41C54.9375 40.9167 54.9167 40.7917 54.875 40.625C54.875 40.4583 54.875 40.3333 54.875 40.25C54.3333 39.7917 53.875 39.5208 53.5 39.4375C53.125 39.3542 52.625 39.3125 52 39.3125C51.9167 39.3125 51.7292 39.3125 51.4375 39.3125C51.1875 39.3125 51.0208 39.3333 50.9375 39.375C50.6875 39.5833 50.2708 39.9792 49.6875 40.5625C49.1042 41.1042 48.4792 41.7083 47.8125 42.375C47.1875 43.0417 46.5833 43.6667 46 44.25C45.4583 44.8333 45.0833 45.2292 44.875 45.4375C44.8333 45.4375 44.75 45.5208 44.625 45.6875C44.5 45.8125 44.3542 45.9792 44.1875 46.1875C44.0625 46.3958 43.9375 46.6042 43.8125 46.8125C43.7292 46.9792 43.6667 47.125 43.625 47.25L42.125 54.5625V56.25ZM71.75 52.6875C71.9167 52.1042 72.0208 51.5 72.0625 50.875C72.1458 50.25 72.2292 49.5833 72.3125 48.875C72.4375 48.1667 72.625 47.375 72.875 46.5C73.1667 45.5833 73.6042 44.5625 74.1875 43.4375C74.7708 42.3125 75.5417 41.0208 76.5 39.5625C77.5 38.0625 78.7917 36.3542 80.375 34.4375C80.5417 34.1875 80.75 33.9792 81 33.8125C81.25 33.6042 81.5208 33.5 81.8125 33.5C82.3125 33.5 82.75 33.7083 83.125 34.125C83.5 34.5 83.6875 34.9167 83.6875 35.375C83.6875 35.4167 83.6458 35.5625 83.5625 35.8125C83.5208 36.0208 83.4792 36.1667 83.4375 36.25C82.9792 37.2083 82.5417 38.0625 82.125 38.8125C81.7083 39.5625 81.2708 40.2917 80.8125 41C80.3542 41.6667 79.8333 42.375 79.25 43.125C78.7083 43.875 78.0625 44.7292 77.3125 45.6875C76.8125 46.9375 76.375 48.1042 76 49.1875C75.625 50.2708 75.4375 51.4792 75.4375 52.8125C75.4375 53.4792 75.4583 54.0208 75.5 54.4375C75.5833 54.8542 75.7917 55.4167 76.125 56.125H76.8125C78.0208 56.125 79.3958 55.6458 80.9375 54.6875C82.5208 53.6875 84.0625 52.5208 85.5625 51.1875C87.1042 49.8125 88.5 48.4167 89.75 47C91 45.5833 91.9167 44.4375 92.5 43.5625C92.5833 43.4792 92.6875 43.2917 92.8125 43C92.9792 42.6667 93.0833 42.4583 93.125 42.375C93.2083 42.125 93.3542 41.7083 93.5625 41.125C93.7708 40.5 93.9792 39.8542 94.1875 39.1875C94.4375 38.5208 94.6667 37.8958 94.875 37.3125C95.0833 36.6875 95.2292 36.25 95.3125 36C95.3958 35.625 95.5625 35.4167 95.8125 35.375C96.0625 35.3333 96.3125 35.3125 96.5625 35.3125C97.3125 35.3125 97.7917 35.4792 98 35.8125C98.2083 36.1042 98.3125 36.6042 98.3125 37.3125V38.375C97.8958 39.5 97.5208 40.5417 97.1875 41.5C96.8958 42.4583 96.6042 43.3958 96.3125 44.3125C96.0625 45.2292 95.875 46.1458 95.75 47.0625C95.625 47.9792 95.5625 48.9792 95.5625 50.0625C95.5625 50.1875 95.5417 50.4792 95.5 50.9375C95.5 51.3958 95.5208 51.875 95.5625 52.375C95.6458 52.8333 95.7708 53.2708 95.9375 53.6875C96.1458 54.0625 96.4375 54.25 96.8125 54.25C97.8125 54.25 98.8333 54.125 99.875 53.875C100.958 53.5833 102.042 53.2292 103.125 52.8125C104.208 52.3542 105.229 51.8542 106.188 51.3125C107.188 50.7708 108.125 50.2292 109 49.6875C109.208 49.6042 109.458 49.4167 109.75 49.125C110.042 48.8333 110.354 48.5625 110.688 48.3125C111.021 48.0208 111.354 47.7708 111.688 47.5625C112.021 47.3542 112.333 47.25 112.625 47.25C113.458 47.25 113.875 47.6667 113.875 48.5C113.875 49.125 113.5 49.7917 112.75 50.5C112 51.1667 111.042 51.8333 109.875 52.5C108.75 53.1667 107.479 53.7917 106.062 54.375C104.646 54.9583 103.271 55.4792 101.938 55.9375C100.646 56.3542 99.4792 56.7083 98.4375 57C97.3958 57.25 96.6458 57.375 96.1875 57.375C96.0208 57.375 95.7083 57.375 95.25 57.375C94.8333 57.3333 94.5417 57.3125 94.375 57.3125C93.7083 57.1458 93.1875 56.7708 92.8125 56.1875C92.4375 55.6042 92.1458 54.9583 91.9375 54.25C91.7708 53.5 91.6667 52.7708 91.625 52.0625C91.5833 51.3125 91.5625 50.7083 91.5625 50.25C91.4375 50.3333 91.2708 50.4375 91.0625 50.5625C90.8958 50.6458 90.7917 50.75 90.75 50.875C90.4167 51.1667 89.8542 51.625 89.0625 52.25C88.3125 52.8333 87.4792 53.4792 86.5625 54.1875C85.6875 54.8542 84.8542 55.4792 84.0625 56.0625C83.3125 56.6458 82.7917 57.0625 82.5 57.3125C81.6667 57.9375 80.75 58.4583 79.75 58.875C78.75 59.2917 77.7292 59.5 76.6875 59.5C75.6042 59.5 74.75 59.3333 74.125 59C73.5 58.625 73 58.1458 72.625 57.5625C72.2917 56.9375 72.0625 56.2083 71.9375 55.375C71.8125 54.5417 71.75 53.6458 71.75 52.6875ZM116.938 89.9375C116.729 89.3125 116.542 88.7292 116.375 88.1875C116.25 87.6458 116.167 87.125 116.125 86.625C116.083 86.1667 116.042 85.6875 116 85.1875C116 84.7292 116 84.1667 116 83.5C116 83.4167 116 83.25 116 83C116 82.7917 116 82.5417 116 82.25C116 82 116 81.75 116 81.5C116.042 81.2917 116.062 81.1458 116.062 81.0625C116.521 79.0208 117.021 77 117.562 75C118.146 73.0417 118.833 71.125 119.625 69.25C120.417 67.4167 121.375 65.6667 122.5 64C123.625 62.375 125.021 60.8542 126.688 59.4375C126.729 59.2292 126.792 58.8125 126.875 58.1875C126.958 57.5625 127.062 56.9167 127.188 56.25C127.312 55.5833 127.396 54.9583 127.438 54.375C127.521 53.75 127.583 53.2917 127.625 53C127.625 52.9167 127.604 52.7292 127.562 52.4375C127.562 52.1042 127.562 51.8958 127.562 51.8125H127.375C125.917 52.5625 124.521 53.2292 123.188 53.8125C121.854 54.3542 120.396 54.625 118.812 54.625C117.938 54.625 117.188 54.4792 116.562 54.1875C115.979 53.8958 115.5 53.5 115.125 53C114.75 52.5 114.458 51.9167 114.25 51.25C114.083 50.5833 113.979 49.8542 113.938 49.0625L115.438 44.5C115.812 43.4583 116.271 42.3542 116.812 41.1875C117.396 39.9792 118.042 38.8333 118.75 37.75C119.5 36.6667 120.354 35.6875 121.312 34.8125C122.271 33.8958 123.354 33.25 124.562 32.875C126.188 32.625 127.688 32.6667 129.062 33C130.479 33.3333 131.708 33.8125 132.75 34.4375C133.792 35.0625 134.625 35.75 135.25 36.5C135.917 37.2083 136.312 37.8333 136.438 38.375C136.354 39 136.167 39.6667 135.875 40.375C135.583 41.0417 135.25 41.7292 134.875 42.4375C134.542 43.1042 134.188 43.7292 133.812 44.3125C133.479 44.8542 133.229 45.3125 133.062 45.6875C132.729 46.4375 132.438 47.2292 132.188 48.0625C131.938 48.8958 131.708 49.75 131.5 50.625C131.333 51.5 131.188 52.3958 131.062 53.3125C130.979 54.1875 130.938 55 130.938 55.75V56.6875C133.062 55.4375 135.354 54.4583 137.812 53.75C140.271 53.0417 142.708 52.6875 145.125 52.6875C145.417 52.6875 145.792 52.6875 146.25 52.6875C146.75 52.6875 147.208 52.75 147.625 52.875C148.083 52.9583 148.479 53.1458 148.812 53.4375C149.146 53.6875 149.312 54.0625 149.312 54.5625C149.312 55.3542 148.875 55.75 148 55.75C147.875 55.75 147.583 55.7292 147.125 55.6875C146.667 55.6042 146.354 55.5208 146.188 55.4375C145.896 55.4792 145.396 55.5625 144.688 55.6875C143.979 55.8125 143.208 55.9583 142.375 56.125C141.542 56.2917 140.771 56.4583 140.062 56.625C139.354 56.7917 138.854 56.8958 138.562 56.9375C138.438 56.9792 138.188 57.0833 137.812 57.25C137.479 57.375 137.104 57.5208 136.688 57.6875C136.271 57.8542 135.854 58.0208 135.438 58.1875C135.062 58.3125 134.812 58.4375 134.688 58.5625C134.354 58.6458 133.958 58.8125 133.5 59.0625C133.083 59.2708 132.667 59.4792 132.25 59.6875C131.833 59.9375 131.458 60.1458 131.125 60.3125C130.833 60.5208 130.688 60.6458 130.688 60.6875L130.062 61.5625L128.562 77.375C128.438 78.4583 128.125 79.7708 127.625 81.3125C127.167 82.8542 126.542 84.3333 125.75 85.75C124.958 87.1667 123.979 88.3542 122.812 89.3125C121.688 90.3125 120.396 90.8125 118.938 90.8125C118.521 90.8125 118.146 90.75 117.812 90.625C117.521 90.5417 117.229 90.3125 116.938 89.9375ZM119.062 83.8125C119.104 84.1875 119.146 84.7292 119.188 85.4375C119.271 86.1458 119.417 86.7292 119.625 87.1875C120.417 86.9792 121.146 86.3958 121.812 85.4375C122.479 84.5208 123.042 83.4792 123.5 82.3125C123.958 81.1458 124.333 79.9792 124.625 78.8125C124.917 77.6875 125.104 76.8125 125.188 76.1875C125.354 75.2292 125.479 74.3125 125.562 73.4375C125.688 72.6042 125.792 71.7917 125.875 71C125.958 70.25 126.021 69.5 126.062 68.75C126.104 68 126.125 67.1875 126.125 66.3125C126.125 66.1875 126.104 65.8958 126.062 65.4375C126.062 65.0208 126.062 64.75 126.062 64.625C124.938 66.0833 124 67.5625 123.25 69.0625C122.5 70.5625 121.854 72.0833 121.312 73.625C120.812 75.2083 120.375 76.8333 120 78.5C119.667 80.2083 119.354 81.9792 119.062 83.8125ZM117.562 50.25C117.688 50.5833 117.854 50.875 118.062 51.125C118.312 51.375 118.646 51.5 119.062 51.5C120.771 51.5 122.292 51.1458 123.625 50.4375C125 49.6875 126.208 48.7292 127.25 47.5625C128.292 46.3958 129.188 45.125 129.938 43.75C130.729 42.375 131.396 41 131.938 39.625V39.375C131.271 38 130.5 37.125 129.625 36.75C128.792 36.3333 127.896 36.2708 126.938 36.5625C126.021 36.8125 125.083 37.3542 124.125 38.1875C123.167 38.9792 122.25 39.8958 121.375 40.9375C120.542 41.9375 119.792 43 119.125 44.125C118.458 45.25 117.938 46.2917 117.562 47.25C117.188 48.1667 116.979 48.9167 116.938 49.5C116.896 50.0833 117.104 50.3333 117.562 50.25ZM158.938 45.375C158.854 45.2083 158.708 44.9792 158.5 44.6875C158.333 44.3542 158.125 44.1875 157.875 44.1875C157.083 44.1875 156.271 44.5417 155.438 45.25C154.646 45.9167 153.875 46.7292 153.125 47.6875C152.417 48.6042 151.792 49.5417 151.25 50.5C150.75 51.4583 150.438 52.2083 150.312 52.75C150.146 53.2917 150.062 53.9375 150.062 54.6875C150.062 55.4375 150 56.1458 149.875 56.8125C149.792 57.4792 149.562 58.0417 149.188 58.5C148.854 58.9583 148.25 59.1875 147.375 59.1875C146.833 59.1875 146.458 59.0833 146.25 58.875C146.083 58.625 146 58.2292 146 57.6875C146.292 55.6875 146.542 54.0417 146.75 52.75C147 51.4583 147.208 50.3333 147.375 49.375C147.583 48.375 147.771 47.4167 147.938 46.5C148.146 45.5417 148.375 44.3958 148.625 43.0625C148.875 41.7292 149.146 40.1042 149.438 38.1875C149.729 36.2292 150.083 33.75 150.5 30.75C150.5 30.125 150.542 29.25 150.625 28.125C150.708 26.9583 150.854 25.7292 151.062 24.4375C151.312 23.1042 151.625 21.7708 152 20.4375C152.375 19.0625 152.833 17.8333 153.375 16.75C153.958 15.6667 154.625 14.7917 155.375 14.125C156.125 13.4167 157 13.0625 158 13.0625C158.708 13.0625 159.271 13.3125 159.688 13.8125C160.146 14.2708 160.479 14.8333 160.688 15.5C160.938 16.1667 161.083 16.875 161.125 17.625C161.167 18.3333 161.188 18.9167 161.188 19.375C161.188 20.4167 161.104 21.4167 160.938 22.375C160.771 23.2917 160.562 24.2292 160.312 25.1875C160.062 26.1042 159.792 27.0417 159.5 28C159.208 28.9167 158.958 29.8333 158.75 30.75L154.75 38.375L152.5 43.25L152.812 43.9375C153.688 42.8958 154.583 42.1042 155.5 41.5625C156.417 40.9792 157.562 40.6458 158.938 40.5625C159.562 40.5208 160.083 40.7083 160.5 41.125C160.958 41.5417 161.333 42.0833 161.625 42.75C161.917 43.375 162.125 44.0208 162.25 44.6875C162.417 45.3542 162.521 45.8958 162.562 46.3125C162.562 46.5625 162.542 46.9583 162.5 47.5C162.458 48.0417 162.417 48.6667 162.375 49.375C162.333 50.0833 162.292 50.8333 162.25 51.625C162.25 52.375 162.292 53.0833 162.375 53.75C162.458 54.4167 162.625 55 162.875 55.5C163.167 55.9583 163.542 56.2292 164 56.3125C165.625 56.1042 167.062 55.8333 168.312 55.5C169.604 55.125 170.729 54.625 171.688 54C172.646 53.3333 173.438 52.5 174.062 51.5C174.729 50.5 175.229 49.2708 175.562 47.8125C175.854 47.3958 176.271 47.1875 176.812 47.1875C177.438 47.1875 177.833 47.4167 178 47.875C178.208 48.3333 178.312 48.8333 178.312 49.375C178.312 51.0417 177.771 52.5208 176.688 53.8125C175.646 55.0625 174.312 56.1042 172.688 56.9375C171.062 57.7708 169.312 58.4167 167.438 58.875C165.562 59.2917 163.833 59.5 162.25 59.5C161.25 59.5 160.562 59.1667 160.188 58.5C159.812 57.7917 159.583 56.9583 159.5 56C159.458 55 159.458 54 159.5 53C159.542 52 159.542 51.1875 159.5 50.5625C159.5 50.3542 159.479 50.0208 159.438 49.5625C159.396 49.0625 159.333 48.5417 159.25 48C159.208 47.4583 159.146 46.9375 159.062 46.4375C158.979 45.9375 158.938 45.5833 158.938 45.375ZM153.812 30.375C153.812 30.5 153.812 30.7083 153.812 31C153.812 31.2917 153.812 31.5625 153.812 31.8125C153.854 32.0625 153.875 32.2917 153.875 32.5C153.875 32.7083 153.875 32.8333 153.875 32.875L154.188 33.1875C154.604 32.9375 154.979 32.5 155.312 31.875C155.688 31.25 156.021 30.5 156.312 29.625C156.604 28.75 156.854 27.8333 157.062 26.875C157.312 25.875 157.521 24.8958 157.688 23.9375C157.854 22.9792 157.979 22.1042 158.062 21.3125C158.188 20.5208 158.25 19.875 158.25 19.375C158.25 19.2083 158.229 18.8958 158.188 18.4375C158.188 17.9792 158.167 17.7083 158.125 17.625L157.812 17C156.812 17.7917 156.042 18.7292 155.5 19.8125C154.958 20.8958 154.562 22.0208 154.312 23.1875C154.062 24.3542 153.917 25.5625 153.875 26.8125C153.833 28.0625 153.812 29.25 153.812 30.375ZM178.062 42.6875C178.146 42.5208 178.312 42.2708 178.562 41.9375C178.812 41.5625 178.938 41.25 178.938 41V40.8125C178.938 40.7708 178.896 40.7292 178.812 40.6875C178.729 40.6042 178.667 40.5625 178.625 40.5625H177.5C176.417 40.8958 175.208 41.125 173.875 41.25C172.5 41.375 171.188 41.4167 169.938 41.375C168.646 41.3333 167.542 41.2292 166.625 41.0625C165.708 40.8542 165.167 40.625 165 40.375C164.833 40.125 165.146 39.8333 165.938 39.5C166.729 39.125 168.229 38.75 170.438 38.375C170.562 38.375 170.854 38.3333 171.312 38.25C171.729 38.125 172.208 38.0208 172.75 37.9375C173.25 37.8542 173.729 37.7708 174.188 37.6875C174.646 37.5625 174.938 37.5 175.062 37.5C175.229 37.4583 175.583 37.4375 176.125 37.4375C176.667 37.3958 177.208 37.3542 177.75 37.3125C178.333 37.2708 178.875 37.25 179.375 37.25C179.917 37.25 180.292 37.25 180.5 37.25L180.812 36.875L185.688 28.6875C185.854 28.3958 186.146 28.1667 186.562 28C187.021 27.8333 187.375 27.75 187.625 27.75C188.167 27.75 188.542 27.9792 188.75 28.4375C188.958 28.8542 189.062 29.2708 189.062 29.6875C189.062 29.7292 189.042 29.7708 189 29.8125C189 29.8542 189 29.8958 189 29.9375V30.1875L186.25 36.875V37.25C186.333 37 186.479 36.875 186.688 36.875C186.938 36.875 187.125 36.875 187.25 36.875C187.875 36.875 188.479 37.0833 189.062 37.5C189.646 37.9167 189.938 38.4792 189.938 39.1875C189.938 39.5208 189.833 39.7917 189.625 40C189.417 40.2083 189.167 40.375 188.875 40.5C188.583 40.625 188.271 40.7292 187.938 40.8125C187.604 40.8542 187.312 40.875 187.062 40.875C186.562 40.875 186.083 40.8125 185.625 40.6875C185.208 40.5625 184.75 40.5 184.25 40.5C183.792 40.5 183.375 40.75 183 41.25C182.625 41.7083 182.271 42.3333 181.938 43.125C181.646 43.875 181.396 44.7292 181.188 45.6875C180.979 46.6458 180.792 47.5833 180.625 48.5C180.458 49.4167 180.333 50.2708 180.25 51.0625C180.208 51.8542 180.188 52.4583 180.188 52.875C180.188 53.0417 180.188 53.375 180.188 53.875C180.229 54.375 180.25 54.7083 180.25 54.875C180.292 55.125 180.396 55.3542 180.562 55.5625C180.729 55.7292 180.896 55.9167 181.062 56.125H182.5C184.167 56.125 185.812 55.75 187.438 55C189.104 54.25 190.667 53.3958 192.125 52.4375C192.208 52.3958 192.396 52.2083 192.688 51.875C193.021 51.5 193.375 51.1458 193.75 50.8125C194.125 50.4375 194.458 50.1042 194.75 49.8125C195.083 49.5208 195.312 49.375 195.438 49.375C195.729 49.375 196 49.5208 196.25 49.8125C196.5 50.1042 196.625 50.4167 196.625 50.75C196.625 51.5417 196.333 52.3125 195.75 53.0625C195.208 53.8125 194.5 54.5208 193.625 55.1875C192.75 55.8125 191.75 56.3958 190.625 56.9375C189.5 57.4792 188.375 57.9375 187.25 58.3125C186.167 58.6875 185.125 58.9792 184.125 59.1875C183.167 59.3958 182.375 59.5 181.75 59.5C181.167 59.5 180.562 59.4375 179.938 59.3125C179.312 59.1458 178.75 58.8958 178.25 58.5625C177.75 58.2292 177.333 57.8125 177 57.3125C176.667 56.8125 176.5 56.1875 176.5 55.4375V48.5L178.062 42.6875ZM224.5 42.6875C224.583 42.5208 224.75 42.2708 225 41.9375C225.25 41.5625 225.375 41.25 225.375 41V40.8125C225.375 40.7708 225.333 40.7292 225.25 40.6875C225.167 40.6042 225.104 40.5625 225.062 40.5625H223.938C222.854 40.8958 221.646 41.125 220.312 41.25C218.938 41.375 217.625 41.4167 216.375 41.375C215.083 41.3333 213.979 41.2292 213.062 41.0625C212.146 40.8542 211.604 40.625 211.438 40.375C211.271 40.125 211.583 39.8333 212.375 39.5C213.167 39.125 214.667 38.75 216.875 38.375C217 38.375 217.292 38.3333 217.75 38.25C218.167 38.125 218.646 38.0208 219.188 37.9375C219.688 37.8542 220.167 37.7708 220.625 37.6875C221.083 37.5625 221.375 37.5 221.5 37.5C221.667 37.4583 222.021 37.4375 222.562 37.4375C223.104 37.3958 223.646 37.3542 224.188 37.3125C224.771 37.2708 225.312 37.25 225.812 37.25C226.354 37.25 226.729 37.25 226.938 37.25L227.25 36.875L232.125 28.6875C232.292 28.3958 232.583 28.1667 233 28C233.458 27.8333 233.812 27.75 234.062 27.75C234.604 27.75 234.979 27.9792 235.188 28.4375C235.396 28.8542 235.5 29.2708 235.5 29.6875C235.5 29.7292 235.479 29.7708 235.438 29.8125C235.438 29.8542 235.438 29.8958 235.438 29.9375V30.1875L232.688 36.875V37.25C232.771 37 232.917 36.875 233.125 36.875C233.375 36.875 233.562 36.875 233.688 36.875C234.312 36.875 234.917 37.0833 235.5 37.5C236.083 37.9167 236.375 38.4792 236.375 39.1875C236.375 39.5208 236.271 39.7917 236.062 40C235.854 40.2083 235.604 40.375 235.312 40.5C235.021 40.625 234.708 40.7292 234.375 40.8125C234.042 40.8542 233.75 40.875 233.5 40.875C233 40.875 232.521 40.8125 232.062 40.6875C231.646 40.5625 231.188 40.5 230.688 40.5C230.229 40.5 229.812 40.75 229.438 41.25C229.062 41.7083 228.708 42.3333 228.375 43.125C228.083 43.875 227.833 44.7292 227.625 45.6875C227.417 46.6458 227.229 47.5833 227.062 48.5C226.896 49.4167 226.771 50.2708 226.688 51.0625C226.646 51.8542 226.625 52.4583 226.625 52.875C226.625 53.0417 226.625 53.375 226.625 53.875C226.667 54.375 226.688 54.7083 226.688 54.875C226.729 55.125 226.833 55.3542 227 55.5625C227.167 55.7292 227.333 55.9167 227.5 56.125H228.938C230.604 56.125 232.25 55.75 233.875 55C235.542 54.25 237.104 53.3958 238.562 52.4375C238.646 52.3958 238.833 52.2083 239.125 51.875C239.458 51.5 239.812 51.1458 240.188 50.8125C240.562 50.4375 240.896 50.1042 241.188 49.8125C241.521 49.5208 241.75 49.375 241.875 49.375C242.167 49.375 242.438 49.5208 242.688 49.8125C242.938 50.1042 243.062 50.4167 243.062 50.75C243.062 51.5417 242.771 52.3125 242.188 53.0625C241.646 53.8125 240.938 54.5208 240.062 55.1875C239.188 55.8125 238.188 56.3958 237.062 56.9375C235.938 57.4792 234.812 57.9375 233.688 58.3125C232.604 58.6875 231.562 58.9792 230.562 59.1875C229.604 59.3958 228.812 59.5 228.188 59.5C227.604 59.5 227 59.4375 226.375 59.3125C225.75 59.1458 225.188 58.8958 224.688 58.5625C224.188 58.2292 223.771 57.8125 223.438 57.3125C223.104 56.8125 222.938 56.1875 222.938 55.4375V48.5L224.5 42.6875ZM254.5 45.375C254.417 45.2083 254.271 44.9792 254.062 44.6875C253.896 44.3542 253.688 44.1875 253.438 44.1875C252.646 44.1875 251.833 44.5417 251 45.25C250.208 45.9167 249.438 46.7292 248.688 47.6875C247.979 48.6042 247.354 49.5417 246.812 50.5C246.312 51.4583 246 52.2083 245.875 52.75C245.708 53.2917 245.625 53.9375 245.625 54.6875C245.625 55.4375 245.562 56.1458 245.438 56.8125C245.354 57.4792 245.125 58.0417 244.75 58.5C244.417 58.9583 243.812 59.1875 242.938 59.1875C242.396 59.1875 242.021 59.0833 241.812 58.875C241.646 58.625 241.562 58.2292 241.562 57.6875C241.854 55.6875 242.104 54.0417 242.312 52.75C242.562 51.4583 242.771 50.3333 242.938 49.375C243.146 48.375 243.333 47.4167 243.5 46.5C243.708 45.5417 243.938 44.3958 244.188 43.0625C244.438 41.7292 244.708 40.1042 245 38.1875C245.292 36.2292 245.646 33.75 246.062 30.75C246.062 30.125 246.104 29.25 246.188 28.125C246.271 26.9583 246.417 25.7292 246.625 24.4375C246.875 23.1042 247.188 21.7708 247.562 20.4375C247.938 19.0625 248.396 17.8333 248.938 16.75C249.521 15.6667 250.188 14.7917 250.938 14.125C251.688 13.4167 252.562 13.0625 253.562 13.0625C254.271 13.0625 254.833 13.3125 255.25 13.8125C255.708 14.2708 256.042 14.8333 256.25 15.5C256.5 16.1667 256.646 16.875 256.688 17.625C256.729 18.3333 256.75 18.9167 256.75 19.375C256.75 20.4167 256.667 21.4167 256.5 22.375C256.333 23.2917 256.125 24.2292 255.875 25.1875C255.625 26.1042 255.354 27.0417 255.062 28C254.771 28.9167 254.521 29.8333 254.312 30.75L250.312 38.375L248.062 43.25L248.375 43.9375C249.25 42.8958 250.146 42.1042 251.062 41.5625C251.979 40.9792 253.125 40.6458 254.5 40.5625C255.125 40.5208 255.646 40.7083 256.062 41.125C256.521 41.5417 256.896 42.0833 257.188 42.75C257.479 43.375 257.688 44.0208 257.812 44.6875C257.979 45.3542 258.083 45.8958 258.125 46.3125C258.125 46.5625 258.104 46.9583 258.062 47.5C258.021 48.0417 257.979 48.6667 257.938 49.375C257.896 50.0833 257.854 50.8333 257.812 51.625C257.812 52.375 257.854 53.0833 257.938 53.75C258.021 54.4167 258.188 55 258.438 55.5C258.729 55.9583 259.104 56.2292 259.562 56.3125C261.188 56.1042 262.625 55.8333 263.875 55.5C265.167 55.125 266.292 54.625 267.25 54C268.208 53.3333 269 52.5 269.625 51.5C270.292 50.5 270.792 49.2708 271.125 47.8125C271.417 47.3958 271.833 47.1875 272.375 47.1875C273 47.1875 273.396 47.4167 273.562 47.875C273.771 48.3333 273.875 48.8333 273.875 49.375C273.875 51.0417 273.333 52.5208 272.25 53.8125C271.208 55.0625 269.875 56.1042 268.25 56.9375C266.625 57.7708 264.875 58.4167 263 58.875C261.125 59.2917 259.396 59.5 257.812 59.5C256.812 59.5 256.125 59.1667 255.75 58.5C255.375 57.7917 255.146 56.9583 255.062 56C255.021 55 255.021 54 255.062 53C255.104 52 255.104 51.1875 255.062 50.5625C255.062 50.3542 255.042 50.0208 255 49.5625C254.958 49.0625 254.896 48.5417 254.812 48C254.771 47.4583 254.708 46.9375 254.625 46.4375C254.542 45.9375 254.5 45.5833 254.5 45.375ZM249.375 30.375C249.375 30.5 249.375 30.7083 249.375 31C249.375 31.2917 249.375 31.5625 249.375 31.8125C249.417 32.0625 249.438 32.2917 249.438 32.5C249.438 32.7083 249.438 32.8333 249.438 32.875L249.75 33.1875C250.167 32.9375 250.542 32.5 250.875 31.875C251.25 31.25 251.583 30.5 251.875 29.625C252.167 28.75 252.417 27.8333 252.625 26.875C252.875 25.875 253.083 24.8958 253.25 23.9375C253.417 22.9792 253.542 22.1042 253.625 21.3125C253.75 20.5208 253.812 19.875 253.812 19.375C253.812 19.2083 253.792 18.8958 253.75 18.4375C253.75 17.9792 253.729 17.7083 253.688 17.625L253.375 17C252.375 17.7917 251.604 18.7292 251.062 19.8125C250.521 20.8958 250.125 22.0208 249.875 23.1875C249.625 24.3542 249.479 25.5625 249.438 26.8125C249.396 28.0625 249.375 29.25 249.375 30.375ZM272.688 49.6875C272.771 49.4375 272.896 49 273.062 48.375C273.271 47.7083 273.458 47 273.625 46.25C273.833 45.5 274 44.7917 274.125 44.125C274.292 43.4167 274.417 42.9375 274.5 42.6875C274.75 41.6875 275.042 40.6042 275.375 39.4375C275.75 38.2708 276.25 37.1875 276.875 36.1875C277.5 35.1875 278.292 34.375 279.25 33.75C280.25 33.0833 281.479 32.75 282.938 32.75C283.479 32.75 283.854 32.9583 284.062 33.375C284.312 33.75 284.521 34.1667 284.688 34.625C284.688 34.7917 284.688 35.1042 284.688 35.5625C284.729 35.9792 284.75 36.2708 284.75 36.4375C284.75 38.2292 284.562 39.8125 284.188 41.1875C283.854 42.5625 283.312 43.8333 282.562 45C281.854 46.1667 280.979 47.2708 279.938 48.3125C278.896 49.3125 277.708 50.375 276.375 51.5C276.333 51.625 276.271 51.8333 276.188 52.125C276.104 52.4167 276.062 52.625 276.062 52.75V52.875C276.062 53.625 276.188 54.2292 276.438 54.6875C276.688 55.1458 277.021 55.5208 277.438 55.8125C277.896 56.0625 278.396 56.2292 278.938 56.3125C279.521 56.3542 280.146 56.375 280.812 56.375C282.771 56.375 284.646 56.1042 286.438 55.5625C288.229 55.0208 289.875 54.1458 291.375 52.9375C291.583 52.7292 291.833 52.4375 292.125 52.0625C292.458 51.6458 292.792 51.2292 293.125 50.8125C293.458 50.3958 293.812 50.0417 294.188 49.75C294.562 49.4167 294.958 49.25 295.375 49.25C295.792 49.25 296.042 49.4167 296.125 49.75C296.208 50.0833 296.25 50.4167 296.25 50.75C296.25 51.6667 295.958 52.5417 295.375 53.375C294.833 54.1667 294.104 54.8958 293.188 55.5625C292.312 56.1875 291.292 56.75 290.125 57.25C289 57.75 287.875 58.1667 286.75 58.5C285.625 58.8333 284.542 59.0833 283.5 59.25C282.5 59.4167 281.646 59.5 280.938 59.5C278.729 59.5 276.875 59.1458 275.375 58.4375C273.917 57.6875 272.917 56.2083 272.375 54L272.688 49.6875ZM281.625 37.375C280.792 38.125 280.125 38.8125 279.625 39.4375C279.167 40.0208 278.792 40.6458 278.5 41.3125C278.25 41.9375 278.021 42.625 277.812 43.375C277.646 44.125 277.458 45 277.25 46C278.042 45.375 278.688 44.75 279.188 44.125C279.729 43.5 280.167 42.8542 280.5 42.1875C280.833 41.5208 281.083 40.8125 281.25 40.0625C281.417 39.2708 281.542 38.375 281.625 37.375ZM348.938 56.375C348.812 56.125 348.625 55.6667 348.375 55C348.125 54.3333 347.854 53.625 347.562 52.875C347.271 52.125 346.979 51.4167 346.688 50.75C346.438 50.0833 346.25 49.625 346.125 49.375C346.042 49.2083 345.958 49.0417 345.875 48.875C345.833 48.7083 345.729 48.5833 345.562 48.5C344.646 49.375 343.625 50.2917 342.5 51.25C341.417 52.2083 340.25 53.0833 339 53.875C337.792 54.625 336.521 55.25 335.188 55.75C333.854 56.2083 332.521 56.4375 331.188 56.4375C329.729 56.4375 328.583 55.9375 327.75 54.9375C326.917 53.8958 326.271 52.6667 325.812 51.25C325.354 49.7917 325.062 48.3125 324.938 46.8125C324.812 45.3125 324.75 44.0833 324.75 43.125C324.75 41.2083 325.062 39.4792 325.688 37.9375C326.312 36.3542 327.188 35.0208 328.312 33.9375C329.479 32.8125 330.854 31.9583 332.438 31.375C334.021 30.7917 335.792 30.5 337.75 30.5C339.125 30.5 340.333 30.8333 341.375 31.5C342.417 32.125 343.292 32.9583 344 34C344.75 35 345.354 36.1042 345.812 37.3125C346.312 38.5208 346.729 39.6875 347.062 40.8125C347.438 40.6042 347.875 40.125 348.375 39.375C348.917 38.5833 349.458 37.7292 350 36.8125C350.583 35.8542 351.125 34.9167 351.625 34C352.167 33.0417 352.583 32.2708 352.875 31.6875C353 31.4792 353.271 30.9583 353.688 30.125C354.146 29.25 354.625 28.3125 355.125 27.3125C355.667 26.3125 356.146 25.375 356.562 24.5C357.021 23.625 357.312 23.0833 357.438 22.875C357.479 22.7917 357.583 22.6458 357.75 22.4375C357.917 22.1875 358.021 22.0208 358.062 21.9375C358.021 21.9375 358 21.9167 358 21.875V21.75V21.5625C356.083 21.5625 354.229 21.4167 352.438 21.125C350.688 20.8333 349.146 20.2917 347.812 19.5C346.479 18.7083 345.396 17.625 344.562 16.25C343.771 14.875 343.375 13.0625 343.375 10.8125C343.375 10.6875 343.375 10.375 343.375 9.875C343.417 9.375 343.438 9.04167 343.438 8.875C343.562 8.45833 343.792 8.125 344.125 7.875C344.458 7.58333 344.833 7.39583 345.25 7.3125C345.625 7.22917 345.896 7.4375 346.062 7.9375C346.271 8.4375 346.438 9.10417 346.562 9.9375C346.729 10.7708 346.917 11.6667 347.125 12.625C347.375 13.5833 347.771 14.5 348.312 15.375C348.896 16.2083 349.646 16.9375 350.562 17.5625C351.521 18.1875 352.792 18.5417 354.375 18.625C354.458 18.625 354.729 18.6458 355.188 18.6875C355.688 18.6875 356.104 18.6875 356.438 18.6875C356.646 18.6875 356.938 18.6875 357.312 18.6875C357.729 18.6875 358.125 18.6875 358.5 18.6875C358.917 18.6458 359.292 18.5833 359.625 18.5C360 18.375 360.271 18.2083 360.438 18C360.688 17.7083 361.104 17.2083 361.688 16.5C362.312 15.75 362.938 14.9792 363.562 14.1875C364.188 13.3958 364.792 12.6458 365.375 11.9375C365.958 11.1875 366.375 10.6667 366.625 10.375C367.333 9.66667 368.125 8.95833 369 8.25C369.875 7.54167 370.792 6.91667 371.75 6.375C372.708 5.83333 373.708 5.39583 374.75 5.0625C375.792 4.72917 376.854 4.5625 377.938 4.5625C378.688 4.5625 379.312 4.70833 379.812 5C380.354 5.29167 380.771 5.6875 381.062 6.1875C381.354 6.64583 381.542 7.1875 381.625 7.8125C381.75 8.39583 381.812 9 381.812 9.625C381.812 10.8333 381.5 11.8958 380.875 12.8125C380.292 13.7292 379.521 14.5417 378.562 15.25C377.604 15.9583 376.562 16.5625 375.438 17.0625C374.354 17.5625 373.312 17.9792 372.312 18.3125C371.979 18.4375 371.375 18.625 370.5 18.875C369.625 19.125 368.667 19.4167 367.625 19.75C366.625 20.0417 365.667 20.3125 364.75 20.5625C363.875 20.8125 363.25 20.9583 362.875 21C362.583 21.2917 362.25 21.6458 361.875 22.0625C361.542 22.4792 361.292 22.8542 361.125 23.1875L353.438 37.25C353.396 37.25 353.333 37.2917 353.25 37.375C353.208 37.4167 353.167 37.4583 353.125 37.5C353.125 37.5833 353.062 37.75 352.938 38C352.812 38.2083 352.688 38.4583 352.562 38.75C352.438 39 352.312 39.25 352.188 39.5C352.062 39.75 352 39.8958 352 39.9375C351.875 40.1042 351.646 40.4375 351.312 40.9375C351.021 41.3958 350.688 41.8958 350.312 42.4375C349.938 42.9375 349.583 43.4167 349.25 43.875C348.958 44.3333 348.75 44.6458 348.625 44.8125V45V45.125C348.917 46.2083 349.167 47.1458 349.375 47.9375C349.625 48.6875 349.854 49.4167 350.062 50.125C350.312 50.8333 350.604 51.5833 350.938 52.375C351.271 53.1667 351.708 54.1042 352.25 55.1875C352.417 55.4792 352.646 55.75 352.938 56C353.229 56.25 353.521 56.5 353.812 56.75C354.146 57 354.417 57.2708 354.625 57.5625C354.875 57.8125 355 58.0833 355 58.375C355 59.125 354.625 59.5 353.875 59.5C352.792 59.5 351.833 59.1875 351 58.5625C350.167 57.9375 349.479 57.2083 348.938 56.375ZM327.875 42.5C327.875 43 327.917 43.8333 328 45C328.083 46.125 328.25 47.2917 328.5 48.5C328.792 49.6667 329.208 50.7083 329.75 51.625C330.333 52.5417 331.104 53 332.062 53C333.188 53 334.188 52.75 335.062 52.25C335.979 51.75 336.938 51.2917 337.938 50.875L344.375 44.8125V44.5625C344.375 43.8125 344.188 42.8333 343.812 41.625C343.479 40.4167 343 39.2292 342.375 38.0625C341.75 36.8958 341.021 35.9167 340.188 35.125C339.354 34.2917 338.458 33.875 337.5 33.875C336.125 33.875 334.833 34.0417 333.625 34.375C332.458 34.7083 331.458 35.2292 330.625 35.9375C329.792 36.6458 329.125 37.5417 328.625 38.625C328.125 39.7083 327.875 41 327.875 42.5ZM377.375 7.9375C376.375 7.9375 375.375 8.14583 374.375 8.5625C373.375 8.97917 372.417 9.52083 371.5 10.1875C370.583 10.8542 369.729 11.5833 368.938 12.375C368.146 13.1667 367.458 13.9167 366.875 14.625C366.708 14.7917 366.5 15.0417 366.25 15.375C366.042 15.7083 365.812 16.0208 365.562 16.3125C365.354 16.5625 365.167 16.8125 365 17.0625C364.833 17.2708 364.75 17.375 364.75 17.375V17.6875H365C365.042 17.6875 365.333 17.6042 365.875 17.4375C366.417 17.2708 367.042 17.0833 367.75 16.875C368.5 16.625 369.25 16.3958 370 16.1875C370.75 15.9375 371.333 15.7292 371.75 15.5625C372.375 15.3542 373.083 15.0833 373.875 14.75C374.708 14.375 375.479 13.9375 376.188 13.4375C376.938 12.9375 377.562 12.375 378.062 11.75C378.562 11.125 378.812 10.4167 378.812 9.625C378.812 8.95833 378.708 8.52083 378.5 8.3125C378.333 8.0625 377.958 7.9375 377.375 7.9375ZM367.812 54.5625C367.812 54.5208 367.833 54.375 367.875 54.125C367.917 53.875 367.958 53.625 368 53.375C368.042 53.0833 368.083 52.8333 368.125 52.625C368.167 52.375 368.188 52.2083 368.188 52.125V51.875V51.5L369.062 47.5625C369.771 46.0625 370.5 44.625 371.25 43.25C372.042 41.875 372.938 40.6667 373.938 39.625C374.938 38.5833 376.083 37.75 377.375 37.125C378.708 36.5 380.312 36.1875 382.188 36.1875C382.562 36.1875 383.021 36.3125 383.562 36.5625C384.146 36.7708 384.708 37.0417 385.25 37.375C385.833 37.7083 386.354 38.0625 386.812 38.4375C387.312 38.7708 387.688 39.0833 387.938 39.375C389.229 39.1667 390.167 39.0625 390.75 39.0625C391.333 39.0208 391.833 39 392.25 39C392.667 38.9583 393.104 38.875 393.562 38.75C394.062 38.625 394.812 38.3542 395.812 37.9375C396.521 37.7292 397.208 37.625 397.875 37.625C398.167 37.625 398.438 37.75 398.688 38C398.979 38.25 399.125 38.5417 399.125 38.875C399.125 39.2917 398.979 39.6667 398.688 40C398.396 40.3333 398.042 40.5417 397.625 40.625L389.812 42.375L389.125 42.6875C389.083 44.9375 388.583 47.0833 387.625 49.125C386.667 51.1667 385.396 52.9583 383.812 54.5C382.229 56.0417 380.396 57.2708 378.312 58.1875C376.229 59.0625 374.062 59.5 371.812 59.5C371.646 59.5 371.375 59.4792 371 59.4375C370.625 59.4375 370.375 59.4375 370.25 59.4375C369.333 59.0625 368.688 58.375 368.312 57.375C367.979 56.375 367.812 55.4375 367.812 54.5625ZM371.812 55.8125C371.854 56.0208 372.021 56.125 372.312 56.125C372.604 56.125 372.812 56.125 372.938 56.125C374.438 56.125 375.979 55.75 377.562 55C379.146 54.2083 380.562 53.2083 381.812 52C383.104 50.75 384.146 49.3542 384.938 47.8125C385.771 46.2292 386.188 44.6458 386.188 43.0625C384.854 43.0625 383.521 42.9583 382.188 42.75C380.854 42.5 379.562 42.375 378.312 42.375H378.25L373.062 47.875C372.771 48.1667 372.542 48.5625 372.375 49.0625C372.208 49.5625 372.083 50.1042 372 50.6875C371.917 51.2708 371.854 51.8542 371.812 52.4375C371.771 53.0208 371.75 53.5417 371.75 54C371.75 54.125 371.75 54.4167 371.75 54.875C371.75 55.3333 371.771 55.6458 371.812 55.8125ZM398.375 52.75L400.25 44.125C400.417 42.75 400.646 41.3958 400.938 40.0625C401.271 38.6875 401.646 37.4792 402.062 36.4375C402.521 35.3958 403 34.5417 403.5 33.875C404 33.2083 404.521 32.875 405.062 32.875C405.688 32.875 406.146 33.1458 406.438 33.6875C406.729 34.1875 406.875 34.7083 406.875 35.25V36L402.625 49.6875C402.375 50.5625 402.188 51.3333 402.062 52C401.979 52.6667 401.938 53.4167 401.938 54.25C401.938 54.375 401.917 54.5417 401.875 54.75C401.875 54.9583 401.896 55.1667 401.938 55.375C401.979 55.5833 402.042 55.7708 402.125 55.9375C402.25 56.0625 402.396 56.125 402.562 56.125C402.979 56.125 403.438 56.0208 403.938 55.8125C404.479 55.6042 405.021 55.375 405.562 55.125C406.104 54.8333 406.604 54.5625 407.062 54.3125C407.521 54.0208 407.875 53.7917 408.125 53.625C409.083 53.0417 409.958 52.4375 410.75 51.8125C411.542 51.1875 412.292 50.5417 413 49.875C413.708 49.2083 414.375 48.5 415 47.75C415.625 46.9583 416.271 46.0833 416.938 45.125C417.146 44.75 417.396 44.2083 417.688 43.5C417.979 42.75 418.292 41.9167 418.625 41C418.958 40.0417 419.292 39.0833 419.625 38.125C419.958 37.1667 420.292 36.2708 420.625 35.4375C420.958 34.6042 421.292 33.9375 421.625 33.4375C421.958 32.8958 422.292 32.625 422.625 32.625C423.042 32.625 423.333 32.7083 423.5 32.875C423.708 33 423.854 33.1875 423.938 33.4375C424.062 33.6875 424.146 33.9583 424.188 34.25C424.271 34.5417 424.375 34.8125 424.5 35.0625C424.542 35.1042 424.646 35.1667 424.812 35.25C424.979 35.2917 425.104 35.3333 425.188 35.375C425.604 35.5 425.812 35.6042 425.812 35.6875C425.854 35.7708 425.854 35.875 425.812 36C425.771 36.0833 425.771 36.1458 425.812 36.1875C425.854 36.1875 426.083 36.1875 426.5 36.1875H426.688C427.188 36.1458 427.812 36.0833 428.562 36C429.354 35.875 430.104 35.7708 430.812 35.6875C431.521 35.6042 432.125 35.5208 432.625 35.4375C433.167 35.3542 433.438 35.3125 433.438 35.3125L434.688 38C433.479 38.3333 432.458 38.6042 431.625 38.8125C430.792 38.9792 429.979 39.1042 429.188 39.1875C428.438 39.2708 427.625 39.2917 426.75 39.25C425.917 39.2083 424.896 39.1458 423.688 39.0625L423.312 39.375C422.521 41.3333 421.708 43.1458 420.875 44.8125C420.083 46.4375 419.146 47.9583 418.062 49.375C416.979 50.75 415.75 52.0625 414.375 53.3125C413.042 54.5208 411.458 55.6458 409.625 56.6875C408.458 57.3542 407.271 58 406.062 58.625C404.854 59.2083 403.604 59.5 402.312 59.5C401.521 59.5 400.854 59.3542 400.312 59.0625C399.812 58.7708 399.417 58.3958 399.125 57.9375C398.833 57.4375 398.625 56.875 398.5 56.25C398.417 55.5833 398.375 54.9167 398.375 54.25V52.75ZM431.875 49.6875C431.958 49.4375 432.083 49 432.25 48.375C432.458 47.7083 432.646 47 432.812 46.25C433.021 45.5 433.188 44.7917 433.312 44.125C433.479 43.4167 433.604 42.9375 433.688 42.6875C433.938 41.6875 434.229 40.6042 434.562 39.4375C434.938 38.2708 435.438 37.1875 436.062 36.1875C436.688 35.1875 437.479 34.375 438.438 33.75C439.438 33.0833 440.667 32.75 442.125 32.75C442.667 32.75 443.042 32.9583 443.25 33.375C443.5 33.75 443.708 34.1667 443.875 34.625C443.875 34.7917 443.875 35.1042 443.875 35.5625C443.917 35.9792 443.938 36.2708 443.938 36.4375C443.938 38.2292 443.75 39.8125 443.375 41.1875C443.042 42.5625 442.5 43.8333 441.75 45C441.042 46.1667 440.167 47.2708 439.125 48.3125C438.083 49.3125 436.896 50.375 435.562 51.5C435.521 51.625 435.458 51.8333 435.375 52.125C435.292 52.4167 435.25 52.625 435.25 52.75V52.875C435.25 53.625 435.375 54.2292 435.625 54.6875C435.875 55.1458 436.208 55.5208 436.625 55.8125C437.083 56.0625 437.583 56.2292 438.125 56.3125C438.708 56.3542 439.333 56.375 440 56.375C441.958 56.375 443.833 56.1042 445.625 55.5625C447.417 55.0208 449.062 54.1458 450.562 52.9375C450.771 52.7292 451.021 52.4375 451.312 52.0625C451.646 51.6458 451.979 51.2292 452.312 50.8125C452.646 50.3958 453 50.0417 453.375 49.75C453.75 49.4167 454.146 49.25 454.562 49.25C454.979 49.25 455.229 49.4167 455.312 49.75C455.396 50.0833 455.438 50.4167 455.438 50.75C455.438 51.6667 455.146 52.5417 454.562 53.375C454.021 54.1667 453.292 54.8958 452.375 55.5625C451.5 56.1875 450.479 56.75 449.312 57.25C448.188 57.75 447.062 58.1667 445.938 58.5C444.812 58.8333 443.729 59.0833 442.688 59.25C441.688 59.4167 440.833 59.5 440.125 59.5C437.917 59.5 436.062 59.1458 434.562 58.4375C433.104 57.6875 432.104 56.2083 431.562 54L431.875 49.6875ZM440.812 37.375C439.979 38.125 439.312 38.8125 438.812 39.4375C438.354 40.0208 437.979 40.6458 437.688 41.3125C437.438 41.9375 437.208 42.625 437 43.375C436.833 44.125 436.646 45 436.438 46C437.229 45.375 437.875 44.75 438.375 44.125C438.917 43.5 439.354 42.8542 439.688 42.1875C440.021 41.5208 440.271 40.8125 440.438 40.0625C440.604 39.2708 440.729 38.375 440.812 37.375ZM460.312 50.875C460.271 50.875 460.208 50.9375 460.125 51.0625C460.083 51.1458 460.021 51.2083 459.938 51.25C459.438 52.125 459.042 52.9792 458.75 53.8125C458.458 54.6458 458.167 55.6042 457.875 56.6875C457.583 57.1042 457.271 57.375 456.938 57.5C456.646 57.5833 456.292 57.625 455.875 57.625C454.917 57.625 454.438 57.2083 454.438 56.375C454.896 54.5417 455.292 53.0625 455.625 51.9375C455.958 50.7708 456.25 49.7917 456.5 49C456.75 48.1667 456.958 47.4375 457.125 46.8125C457.333 46.1875 457.542 45.5625 457.75 44.9375C457.958 44.2708 458.167 43.5 458.375 42.625C458.625 41.75 458.896 40.6667 459.188 39.375C459.521 38.0417 459.896 36.4167 460.312 34.5C460.729 32.5833 461.229 30.2292 461.812 27.4375L463.938 22.1875C464.104 21.8125 464.292 21.5833 464.5 21.5C464.75 21.375 465.021 21.3125 465.312 21.3125C465.688 21.3125 466.042 21.4375 466.375 21.6875C466.708 21.8958 466.917 22.2083 467 22.625C467 22.7083 467 22.875 467 23.125C467 23.375 467 23.6458 467 23.9375C467.042 24.1875 467.062 24.4375 467.062 24.6875C467.062 24.8958 467.062 25.0625 467.062 25.1875C467.062 27.3958 466.875 29.2917 466.5 30.875C466.167 32.4583 465.688 33.9375 465.062 35.3125C464.479 36.6875 463.812 38.0625 463.062 39.4375C462.354 40.8125 461.646 42.3958 460.938 44.1875C462.062 42.8958 463.354 41.7917 464.812 40.875C466.271 39.9583 467.875 39.5 469.625 39.5C469.792 39.5 470.104 39.5208 470.562 39.5625C471.062 39.6042 471.396 39.625 471.562 39.625C472.438 39.875 473.188 40.3542 473.812 41.0625C474.479 41.7708 475 42.5833 475.375 43.5C475.75 44.375 476.021 45.3125 476.188 46.3125C476.354 47.2708 476.438 48.1458 476.438 48.9375C476.438 49.7708 476.354 50.6667 476.188 51.625C476.021 52.5417 475.812 53.4167 475.562 54.25H476.188L485.25 51.875C486.083 51.625 486.917 51.1875 487.75 50.5625C488.625 49.9375 489.333 49.3542 489.875 48.8125H490C490.042 48.8125 490.062 48.8125 490.062 48.8125C490.104 48.7708 490.146 48.75 490.188 48.75C490.562 48.75 490.854 48.875 491.062 49.125C491.312 49.3333 491.438 49.625 491.438 50C491.438 50.75 491.125 51.4375 490.5 52.0625C489.917 52.6875 489.208 53.2292 488.375 53.6875C487.542 54.1042 486.688 54.4792 485.812 54.8125C484.938 55.1042 484.25 55.3125 483.75 55.4375C483.333 55.5625 482.604 55.7708 481.562 56.0625C480.562 56.3125 479.479 56.5833 478.312 56.875C477.146 57.1667 476.021 57.4375 474.938 57.6875C473.896 57.9375 473.188 58.1042 472.812 58.1875C472.188 58.5208 471.604 58.8333 471.062 59.125C470.521 59.375 469.917 59.5 469.25 59.5C468.292 59.5 467.229 59.2708 466.062 58.8125C464.938 58.3125 463.896 57.6875 462.938 56.9375C462.021 56.1458 461.271 55.2292 460.688 54.1875C460.146 53.1458 460.021 52.0417 460.312 50.875ZM461.812 49.9375C462.438 49.9375 462.938 50.2083 463.312 50.75C463.729 51.25 464.188 51.8125 464.688 52.4375C465.188 53.0625 465.812 53.625 466.562 54.125C467.354 54.625 468.479 54.875 469.938 54.875H471.25C471.625 54.5 471.917 54.0208 472.125 53.4375C472.375 52.8542 472.542 52.2708 472.625 51.6875C472.75 51.0625 472.812 50.4375 472.812 49.8125C472.812 49.1875 472.812 48.6042 472.812 48.0625C472.812 47.4792 472.75 46.875 472.625 46.25C472.5 45.5833 472.292 44.9792 472 44.4375C471.708 43.8958 471.292 43.4583 470.75 43.125C470.25 42.7917 469.646 42.625 468.938 42.625C468.104 42.625 467.229 42.8958 466.312 43.4375C465.438 43.9375 464.625 44.5833 463.875 45.375C463.125 46.1667 462.458 47 461.875 47.875C461.292 48.75 460.875 49.5417 460.625 50.25C460.833 50.0833 461.021 50 461.188 50C461.396 49.9583 461.604 49.9375 461.812 49.9375ZM486.938 52.6875C487.104 52.1042 487.208 51.5 487.25 50.875C487.333 50.25 487.417 49.5833 487.5 48.875C487.625 48.1667 487.812 47.375 488.062 46.5C488.354 45.5833 488.792 44.5625 489.375 43.4375C489.958 42.3125 490.729 41.0208 491.688 39.5625C492.688 38.0625 493.979 36.3542 495.562 34.4375C495.729 34.1875 495.938 33.9792 496.188 33.8125C496.438 33.6042 496.708 33.5 497 33.5C497.5 33.5 497.938 33.7083 498.312 34.125C498.688 34.5 498.875 34.9167 498.875 35.375C498.875 35.4167 498.833 35.5625 498.75 35.8125C498.708 36.0208 498.667 36.1667 498.625 36.25C498.167 37.2083 497.729 38.0625 497.312 38.8125C496.896 39.5625 496.458 40.2917 496 41C495.542 41.6667 495.021 42.375 494.438 43.125C493.896 43.875 493.25 44.7292 492.5 45.6875C492 46.9375 491.562 48.1042 491.188 49.1875C490.812 50.2708 490.625 51.4792 490.625 52.8125C490.625 53.4792 490.646 54.0208 490.688 54.4375C490.771 54.8542 490.979 55.4167 491.312 56.125H492C493.208 56.125 494.583 55.6458 496.125 54.6875C497.708 53.6875 499.25 52.5208 500.75 51.1875C502.292 49.8125 503.688 48.4167 504.938 47C506.188 45.5833 507.104 44.4375 507.688 43.5625C507.771 43.4792 507.875 43.2917 508 43C508.167 42.6667 508.271 42.4583 508.312 42.375C508.396 42.125 508.542 41.7083 508.75 41.125C508.958 40.5 509.167 39.8542 509.375 39.1875C509.625 38.5208 509.854 37.8958 510.062 37.3125C510.271 36.6875 510.417 36.25 510.5 36C510.583 35.625 510.75 35.4167 511 35.375C511.25 35.3333 511.5 35.3125 511.75 35.3125C512.5 35.3125 512.979 35.4792 513.188 35.8125C513.396 36.1042 513.5 36.6042 513.5 37.3125V38.375C513.083 39.5 512.708 40.5417 512.375 41.5C512.083 42.4583 511.792 43.3958 511.5 44.3125C511.25 45.2292 511.062 46.1458 510.938 47.0625C510.812 47.9792 510.75 48.9792 510.75 50.0625C510.75 50.1875 510.729 50.4792 510.688 50.9375C510.688 51.3958 510.708 51.875 510.75 52.375C510.833 52.8333 510.958 53.2708 511.125 53.6875C511.333 54.0625 511.625 54.25 512 54.25C513 54.25 514.021 54.125 515.062 53.875C516.146 53.5833 517.229 53.2292 518.312 52.8125C519.396 52.3542 520.417 51.8542 521.375 51.3125C522.375 50.7708 523.312 50.2292 524.188 49.6875C524.396 49.6042 524.646 49.4167 524.938 49.125C525.229 48.8333 525.542 48.5625 525.875 48.3125C526.208 48.0208 526.542 47.7708 526.875 47.5625C527.208 47.3542 527.521 47.25 527.812 47.25C528.646 47.25 529.062 47.6667 529.062 48.5C529.062 49.125 528.688 49.7917 527.938 50.5C527.188 51.1667 526.229 51.8333 525.062 52.5C523.938 53.1667 522.667 53.7917 521.25 54.375C519.833 54.9583 518.458 55.4792 517.125 55.9375C515.833 56.3542 514.667 56.7083 513.625 57C512.583 57.25 511.833 57.375 511.375 57.375C511.208 57.375 510.896 57.375 510.438 57.375C510.021 57.3333 509.729 57.3125 509.562 57.3125C508.896 57.1458 508.375 56.7708 508 56.1875C507.625 55.6042 507.333 54.9583 507.125 54.25C506.958 53.5 506.854 52.7708 506.812 52.0625C506.771 51.3125 506.75 50.7083 506.75 50.25C506.625 50.3333 506.458 50.4375 506.25 50.5625C506.083 50.6458 505.979 50.75 505.938 50.875C505.604 51.1667 505.042 51.625 504.25 52.25C503.5 52.8333 502.667 53.4792 501.75 54.1875C500.875 54.8542 500.042 55.4792 499.25 56.0625C498.5 56.6458 497.979 57.0625 497.688 57.3125C496.854 57.9375 495.938 58.4583 494.938 58.875C493.938 59.2917 492.917 59.5 491.875 59.5C490.792 59.5 489.938 59.3333 489.312 59C488.688 58.625 488.188 58.1458 487.812 57.5625C487.479 56.9375 487.25 56.2083 487.125 55.375C487 54.5417 486.938 53.6458 486.938 52.6875ZM532.125 89.9375C531.917 89.3125 531.729 88.7292 531.562 88.1875C531.438 87.6458 531.354 87.125 531.312 86.625C531.271 86.1667 531.229 85.6875 531.188 85.1875C531.188 84.7292 531.188 84.1667 531.188 83.5C531.188 83.4167 531.188 83.25 531.188 83C531.188 82.7917 531.188 82.5417 531.188 82.25C531.188 82 531.188 81.75 531.188 81.5C531.229 81.2917 531.25 81.1458 531.25 81.0625C531.708 79.0208 532.208 77 532.75 75C533.333 73.0417 534.021 71.125 534.812 69.25C535.604 67.4167 536.562 65.6667 537.688 64C538.812 62.375 540.208 60.8542 541.875 59.4375C541.917 59.2292 541.979 58.8125 542.062 58.1875C542.146 57.5625 542.25 56.9167 542.375 56.25C542.5 55.5833 542.583 54.9583 542.625 54.375C542.708 53.75 542.771 53.2917 542.812 53C542.812 52.9167 542.792 52.7292 542.75 52.4375C542.75 52.1042 542.75 51.8958 542.75 51.8125H542.562C541.104 52.5625 539.708 53.2292 538.375 53.8125C537.042 54.3542 535.583 54.625 534 54.625C533.125 54.625 532.375 54.4792 531.75 54.1875C531.167 53.8958 530.688 53.5 530.312 53C529.938 52.5 529.646 51.9167 529.438 51.25C529.271 50.5833 529.167 49.8542 529.125 49.0625L530.625 44.5C531 43.4583 531.458 42.3542 532 41.1875C532.583 39.9792 533.229 38.8333 533.938 37.75C534.688 36.6667 535.542 35.6875 536.5 34.8125C537.458 33.8958 538.542 33.25 539.75 32.875C541.375 32.625 542.875 32.6667 544.25 33C545.667 33.3333 546.896 33.8125 547.938 34.4375C548.979 35.0625 549.812 35.75 550.438 36.5C551.104 37.2083 551.5 37.8333 551.625 38.375C551.542 39 551.354 39.6667 551.062 40.375C550.771 41.0417 550.438 41.7292 550.062 42.4375C549.729 43.1042 549.375 43.7292 549 44.3125C548.667 44.8542 548.417 45.3125 548.25 45.6875C547.917 46.4375 547.625 47.2292 547.375 48.0625C547.125 48.8958 546.896 49.75 546.688 50.625C546.521 51.5 546.375 52.3958 546.25 53.3125C546.167 54.1875 546.125 55 546.125 55.75V56.6875C548.25 55.4375 550.542 54.4583 553 53.75C555.458 53.0417 557.896 52.6875 560.312 52.6875C560.604 52.6875 560.979 52.6875 561.438 52.6875C561.938 52.6875 562.396 52.75 562.812 52.875C563.271 52.9583 563.667 53.1458 564 53.4375C564.333 53.6875 564.5 54.0625 564.5 54.5625C564.5 55.3542 564.062 55.75 563.188 55.75C563.062 55.75 562.771 55.7292 562.312 55.6875C561.854 55.6042 561.542 55.5208 561.375 55.4375C561.083 55.4792 560.583 55.5625 559.875 55.6875C559.167 55.8125 558.396 55.9583 557.562 56.125C556.729 56.2917 555.958 56.4583 555.25 56.625C554.542 56.7917 554.042 56.8958 553.75 56.9375C553.625 56.9792 553.375 57.0833 553 57.25C552.667 57.375 552.292 57.5208 551.875 57.6875C551.458 57.8542 551.042 58.0208 550.625 58.1875C550.25 58.3125 550 58.4375 549.875 58.5625C549.542 58.6458 549.146 58.8125 548.688 59.0625C548.271 59.2708 547.854 59.4792 547.438 59.6875C547.021 59.9375 546.646 60.1458 546.312 60.3125C546.021 60.5208 545.875 60.6458 545.875 60.6875L545.25 61.5625L543.75 77.375C543.625 78.4583 543.312 79.7708 542.812 81.3125C542.354 82.8542 541.729 84.3333 540.938 85.75C540.146 87.1667 539.167 88.3542 538 89.3125C536.875 90.3125 535.583 90.8125 534.125 90.8125C533.708 90.8125 533.333 90.75 533 90.625C532.708 90.5417 532.417 90.3125 532.125 89.9375ZM534.25 83.8125C534.292 84.1875 534.333 84.7292 534.375 85.4375C534.458 86.1458 534.604 86.7292 534.812 87.1875C535.604 86.9792 536.333 86.3958 537 85.4375C537.667 84.5208 538.229 83.4792 538.688 82.3125C539.146 81.1458 539.521 79.9792 539.812 78.8125C540.104 77.6875 540.292 76.8125 540.375 76.1875C540.542 75.2292 540.667 74.3125 540.75 73.4375C540.875 72.6042 540.979 71.7917 541.062 71C541.146 70.25 541.208 69.5 541.25 68.75C541.292 68 541.312 67.1875 541.312 66.3125C541.312 66.1875 541.292 65.8958 541.25 65.4375C541.25 65.0208 541.25 64.75 541.25 64.625C540.125 66.0833 539.188 67.5625 538.438 69.0625C537.688 70.5625 537.042 72.0833 536.5 73.625C536 75.2083 535.562 76.8333 535.188 78.5C534.854 80.2083 534.542 81.9792 534.25 83.8125ZM532.75 50.25C532.875 50.5833 533.042 50.875 533.25 51.125C533.5 51.375 533.833 51.5 534.25 51.5C535.958 51.5 537.479 51.1458 538.812 50.4375C540.188 49.6875 541.396 48.7292 542.438 47.5625C543.479 46.3958 544.375 45.125 545.125 43.75C545.917 42.375 546.583 41 547.125 39.625V39.375C546.458 38 545.688 37.125 544.812 36.75C543.979 36.3333 543.083 36.2708 542.125 36.5625C541.208 36.8125 540.271 37.3542 539.312 38.1875C538.354 38.9792 537.438 39.8958 536.562 40.9375C535.729 41.9375 534.979 43 534.312 44.125C533.646 45.25 533.125 46.2917 532.75 47.25C532.375 48.1667 532.167 48.9167 532.125 49.5C532.083 50.0833 532.292 50.3333 532.75 50.25Z" fill="white"/>
<path d="M580.5 60.97C580.5 60.9283 580.521 60.8241 580.563 60.6575C580.604 60.4491 580.625 60.3241 580.625 60.2825L596.188 30.095C596.854 28.8866 597.292 27.8033 597.5 26.845C597.708 25.845 597.813 24.7408 597.813 23.5325C597.813 22.9075 597.792 22.345 597.75 21.845C597.708 21.345 597.542 20.8241 597.25 20.2825C597.125 20.2825 596.896 20.2825 596.563 20.2825C596.229 20.2408 596.021 20.22 595.938 20.22C594.521 20.22 593.188 20.47 591.938 20.97C590.729 21.47 589.583 22.1366 588.5 22.97C587.458 23.7616 586.458 24.6575 585.5 25.6575C584.542 26.6575 583.604 27.6366 582.688 28.595C582.313 28.47 581.938 28.3033 581.563 28.095C581.229 27.845 581.063 27.4908 581.063 27.0325C581.063 26.2408 581.333 25.47 581.875 24.72C582.417 23.97 583.083 23.2616 583.875 22.595C584.708 21.8866 585.646 21.2616 586.688 20.72C587.729 20.1366 588.729 19.6158 589.688 19.1575C590.688 18.6575 591.625 18.2616 592.5 17.97C593.375 17.6366 594.063 17.3658 594.563 17.1575C594.688 17.1575 594.833 17.1575 595 17.1575C595.208 17.1158 595.417 17.095 595.625 17.095C595.875 17.095 596.083 17.095 596.25 17.095C596.458 17.0533 596.604 17.0325 596.688 17.0325C597.354 17.0325 598 17.0741 598.625 17.1575C599.292 17.1991 599.854 17.5325 600.313 18.1575C600.396 18.3658 600.479 18.6991 600.563 19.1575C600.688 19.6158 600.813 20.095 600.938 20.595C601.063 21.0533 601.146 21.5116 601.188 21.97C601.271 22.4283 601.313 22.72 601.313 22.845C601.313 23.095 601.271 23.4908 601.188 24.0325C601.146 24.5325 601.063 25.0533 600.938 25.595C600.813 26.1366 600.688 26.6575 600.563 27.1575C600.479 27.6158 600.396 27.9283 600.313 28.095L593.563 42.6575C593.479 42.7408 593.313 42.9908 593.063 43.4075C592.813 43.7825 592.646 44.0325 592.563 44.1575C592.188 44.8241 591.75 45.6366 591.25 46.595C590.792 47.5533 590.271 48.5533 589.688 49.595C589.146 50.6366 588.604 51.6575 588.063 52.6575C587.563 53.6575 587.104 54.5741 586.688 55.4075C586.271 56.1991 585.938 56.8658 585.688 57.4075C585.438 57.9075 585.313 58.1575 585.313 58.1575V58.6575C586.813 58.6575 588.417 58.595 590.125 58.47C591.833 58.345 593.542 58.1575 595.25 57.9075C597 57.6158 598.708 57.1991 600.375 56.6575C602.042 56.1158 603.583 55.4283 605 54.595C605.042 54.6783 605.063 54.8241 605.063 55.0325C605.104 55.1991 605.125 55.2825 605.125 55.2825C605.125 56.0741 604.75 56.7616 604 57.345C603.292 57.8866 602.438 58.3658 601.438 58.7825C600.438 59.1575 599.438 59.47 598.438 59.72C597.438 59.97 596.688 60.1575 596.188 60.2825C595.688 60.3658 594.813 60.5533 593.563 60.845C592.354 61.095 591.063 61.3658 589.688 61.6575C588.354 61.9075 587.063 62.1575 585.813 62.4075C584.563 62.6158 583.708 62.7616 583.25 62.845C583.167 62.845 583.021 62.845 582.813 62.845C582.604 62.8866 582.479 62.9075 582.438 62.9075C581.854 62.9075 581.375 62.7408 581 62.4075C580.667 62.0741 580.5 61.595 580.5 60.97ZM636.813 60.47C636.813 59.6783 637.083 59.0325 637.625 58.5325C638.208 58.0325 638.896 57.6366 639.688 57.345C640.521 57.0533 641.354 56.845 642.188 56.72C643.063 56.5533 643.813 56.47 644.438 56.47C644.813 56.47 645.208 56.4908 645.625 56.5325C646.083 56.5325 646.5 56.6158 646.875 56.7825C647.292 56.9075 647.646 57.1158 647.938 57.4075C648.229 57.6575 648.375 58.0533 648.375 58.595C648.375 59.345 648.208 59.9908 647.875 60.5325C647.542 61.0741 647.125 61.5325 646.625 61.9075C646.125 62.2408 645.563 62.4908 644.938 62.6575C644.313 62.8241 643.667 62.9075 643 62.9075C642.542 62.9075 641.958 62.9075 641.25 62.9075C640.542 62.9491 639.854 62.9075 639.188 62.7825C638.563 62.6575 638 62.4283 637.5 62.095C637.042 61.72 636.813 61.1783 636.813 60.47ZM643.563 59.5325C643.479 59.5325 643.333 59.5325 643.125 59.5325C642.958 59.5325 642.771 59.5533 642.563 59.595C642.354 59.6366 642.146 59.72 641.938 59.845C641.729 59.9283 641.604 60.0741 641.563 60.2825H643.563V59.5325ZM680.563 60.97C680.563 60.9283 680.583 60.8241 680.625 60.6575C680.667 60.4491 680.688 60.3241 680.688 60.2825L696.25 30.095C696.917 28.8866 697.354 27.8033 697.563 26.845C697.771 25.845 697.875 24.7408 697.875 23.5325C697.875 22.9075 697.854 22.345 697.813 21.845C697.771 21.345 697.604 20.8241 697.313 20.2825C697.188 20.2825 696.958 20.2825 696.625 20.2825C696.292 20.2408 696.083 20.22 696 20.22C694.583 20.22 693.25 20.47 692 20.97C690.792 21.47 689.646 22.1366 688.563 22.97C687.521 23.7616 686.521 24.6575 685.563 25.6575C684.604 26.6575 683.667 27.6366 682.75 28.595C682.375 28.47 682 28.3033 681.625 28.095C681.292 27.845 681.125 27.4908 681.125 27.0325C681.125 26.2408 681.396 25.47 681.938 24.72C682.479 23.97 683.146 23.2616 683.938 22.595C684.771 21.8866 685.708 21.2616 686.75 20.72C687.792 20.1366 688.792 19.6158 689.75 19.1575C690.75 18.6575 691.688 18.2616 692.563 17.97C693.438 17.6366 694.125 17.3658 694.625 17.1575C694.75 17.1575 694.896 17.1575 695.063 17.1575C695.271 17.1158 695.479 17.095 695.688 17.095C695.938 17.095 696.146 17.095 696.313 17.095C696.521 17.0533 696.667 17.0325 696.75 17.0325C697.417 17.0325 698.063 17.0741 698.688 17.1575C699.354 17.1991 699.917 17.5325 700.375 18.1575C700.458 18.3658 700.542 18.6991 700.625 19.1575C700.75 19.6158 700.875 20.095 701 20.595C701.125 21.0533 701.208 21.5116 701.25 21.97C701.333 22.4283 701.375 22.72 701.375 22.845C701.375 23.095 701.333 23.4908 701.25 24.0325C701.208 24.5325 701.125 25.0533 701 25.595C700.875 26.1366 700.75 26.6575 700.625 27.1575C700.542 27.6158 700.458 27.9283 700.375 28.095L693.625 42.6575C693.542 42.7408 693.375 42.9908 693.125 43.4075C692.875 43.7825 692.708 44.0325 692.625 44.1575C692.25 44.8241 691.813 45.6366 691.313 46.595C690.854 47.5533 690.333 48.5533 689.75 49.595C689.208 50.6366 688.667 51.6575 688.125 52.6575C687.625 53.6575 687.167 54.5741 686.75 55.4075C686.333 56.1991 686 56.8658 685.75 57.4075C685.5 57.9075 685.375 58.1575 685.375 58.1575V58.6575C686.875 58.6575 688.479 58.595 690.188 58.47C691.896 58.345 693.604 58.1575 695.313 57.9075C697.063 57.6158 698.771 57.1991 700.438 56.6575C702.104 56.1158 703.646 55.4283 705.063 54.595C705.104 54.6783 705.125 54.8241 705.125 55.0325C705.167 55.1991 705.188 55.2825 705.188 55.2825C705.188 56.0741 704.813 56.7616 704.063 57.345C703.354 57.8866 702.5 58.3658 701.5 58.7825C700.5 59.1575 699.5 59.47 698.5 59.72C697.5 59.97 696.75 60.1575 696.25 60.2825C695.75 60.3658 694.875 60.5533 693.625 60.845C692.417 61.095 691.125 61.3658 689.75 61.6575C688.417 61.9075 687.125 62.1575 685.875 62.4075C684.625 62.6158 683.771 62.7616 683.313 62.845C683.229 62.845 683.083 62.845 682.875 62.845C682.667 62.8866 682.542 62.9075 682.5 62.9075C681.917 62.9075 681.438 62.7408 681.063 62.4075C680.729 62.0741 680.563 61.595 680.563 60.97ZM708.125 53.72C708.125 51.22 708.521 48.6158 709.313 45.9075C710.146 43.1575 711.146 40.47 712.313 37.845C713.521 35.1783 714.813 32.6158 716.188 30.1575C717.604 27.6575 718.896 25.4075 720.063 23.4075C720.188 22.5741 720.313 21.8658 720.438 21.2825C720.604 20.6575 720.833 20.1366 721.125 19.72C721.458 19.3033 721.875 18.9908 722.375 18.7825C722.875 18.5325 723.542 18.4075 724.375 18.4075C724.375 19.4075 724.271 20.5325 724.063 21.7825C723.896 22.9908 723.583 24.0325 723.125 24.9075L713.813 43.6575C713.479 44.2825 713.167 44.9908 712.875 45.7825C712.625 46.5325 712.396 47.345 712.188 48.22C712.021 49.0533 711.896 49.9075 711.813 50.7825C711.729 51.6158 711.688 52.3866 711.688 53.095C711.688 54.345 711.938 55.3658 712.438 56.1575C712.938 56.9491 713.583 57.5533 714.375 57.97C715.208 58.3866 716.104 58.6783 717.063 58.845C718.063 58.97 719.021 59.0325 719.938 59.0325C719.938 58.3658 719.854 57.72 719.688 57.095C719.521 56.4283 719.333 55.7825 719.125 55.1575C718.958 54.4908 718.792 53.8241 718.625 53.1575C718.458 52.4908 718.375 51.7825 718.375 51.0325C718.375 49.5741 718.563 48.0325 718.938 46.4075C719.354 44.7408 719.958 43.1991 720.75 41.7825C721.583 40.3658 722.646 39.1991 723.938 38.2825C725.271 37.3241 726.854 36.845 728.688 36.845C730.063 36.845 731.333 37.1366 732.5 37.72C733.708 38.3033 734.729 39.0741 735.563 40.0325C736.396 40.9908 737.042 42.095 737.5 43.345C738 44.5533 738.25 45.845 738.25 47.22C738.25 49.8033 737.792 52.0533 736.875 53.97C735.958 55.845 734.708 57.4075 733.125 58.6575C731.542 59.9075 729.688 60.845 727.563 61.47C725.479 62.095 723.25 62.4075 720.875 62.4075C720.667 62.4075 720.333 62.4075 719.875 62.4075C719.417 62.4075 718.917 62.4075 718.375 62.4075C717.833 62.3658 717.333 62.345 716.875 62.345C716.417 62.345 716.083 62.345 715.875 62.345C715 62.0116 714.104 61.595 713.188 61.095C712.271 60.5533 711.438 59.9283 710.688 59.22C709.938 58.47 709.313 57.6575 708.813 56.7825C708.354 55.8658 708.125 54.845 708.125 53.72ZM721.5 49.5325C721.5 49.9908 721.521 50.7616 721.563 51.845C721.646 52.9283 721.792 54.0325 722 55.1575C722.208 56.2408 722.521 57.1991 722.938 58.0325C723.354 58.8658 723.917 59.2825 724.625 59.2825C726.375 59.2825 727.896 58.9908 729.188 58.4075C730.521 57.7825 731.625 56.9491 732.5 55.9075C733.375 54.8658 734.021 53.6575 734.438 52.2825C734.896 50.9075 735.125 49.4283 735.125 47.845C735.125 46.9283 735.021 46.0116 734.813 45.095C734.646 44.1366 734.333 43.2825 733.875 42.5325C733.458 41.7825 732.875 41.1783 732.125 40.72C731.375 40.2616 730.458 40.0325 729.375 40.0325C728.083 40.0325 726.938 40.3241 725.938 40.9075C724.979 41.4908 724.167 42.2408 723.5 43.1575C722.875 44.0741 722.375 45.095 722 46.22C721.667 47.345 721.5 48.4491 721.5 49.5325Z" fill="white"/>
<path d="M643.365 67.7524C643.365 67.7524 687.381 26.7076 670.083 20.489C652.785 14.2705 643.365 28.7529 643.365 28.7529C643.365 28.7529 639.89 15.8506 618.313 20.489C596.737 25.1274 643.365 67.7524 643.365 67.7524Z" fill="#CE3764"/>
</svg>
